# xmcd
#
# Track frame offsets: 
#        150
#        13913
#        27079
#        39038
#        53970
#        66847
#        80950
#        96429
#        115661
#        131239
#        146991
#        159218
#        171195
#        184333
#        199599
#        215076
#        235325
#        248874
#        262411
#        276150
#        286888
#        301616
#        316731
#        330036
#
# Disc length: 4618 seconds
#
# Revision: 0
# Processed by: cddbd v1.5.2PL0 Copyright (c) Steve Scherf et al.
# Submitted via: ExactAudioCopyFreeDBPlugin 1.0
#
DISCID=60120818
DTITLE=Big Bill Broonzy - Black, Brown and White CD2 (Compilation Blues 
DTITLE=Characters)
DYEAR=1900
DGENRE=Blues
TTITLE0=Black, brown and white
TTITLE1=Hey, hey baby
TTITLE2=Mopper's blues
TTITLE3=John Henry
TTITLE4=Crawdad song
TTITLE5=Hey Bud blues
TTITLE6=Kind hearted blues
TTITLE7=Louise
TTITLE8=Guitar shuffle
TTITLE9=Saturday evening blues
TTITLE10=The GLory of love
TTITLE11=St. Louis blues
TTITLE12=Mindin' my own business
TTITLE13=When do I get to be called a man
TTITLE14=Nobody's business
TTITLE15=Careless love
TTITLE16=Diggin' my potatoes
TTITLE17=When things go wrong
TTITLE18=This train
TTITLE19=Worried life blues
TTITLE20=Trouble in mind
TTITLE21=Take this hammer
TTITLE22=Alberta
TTITLE23=Just a dream (on my mind)
EXTD=
EXTT0=
EXTT1=
EXTT2=
EXTT3=
EXTT4=
EXTT5=
EXTT6=
EXTT7=
EXTT8=
EXTT9=
EXTT10=
EXTT11=
EXTT12=
EXTT13=
EXTT14=
EXTT15=
EXTT16=
EXTT17=
EXTT18=
EXTT19=
EXTT20=
EXTT21=
EXTT22=
EXTT23=
PLAYORDER=
